#!OML:ASF X:\für Bonn\!DataBase\2005_08_12_Daniel\c3d\Daniel.ASF
:FULLY-SPECIFIED
:DEGREES
17
root -1.46619 17.1923 0.687598 -341.122 -73.364 323.245
lowerback 28.8803 -12.1528 3.55405
upperback 10.2326 -15.5232 -0.614156
thorax -4.91507 -7.92223 2.45323
lowerneck 3.14671 8.62811 1.93892
upperneck 14.6975 11.1477 -0.935717
head 4.49805 5.32955 -0.324894
rclavicle 1.31794e-013 -5.00937e-014
rhumerus -51.4178 22.7154 -83.8604
rradius 60.8366
rwrist 11.2586
rhand -27.5115 38.5879
rfingers 7.12502
rthumb -0.914073 8.61014
lclavicle 1.31794e-013 -5.00937e-014
lhumerus 25.104 -4.16357 77.3575
lradius 116.148
lwrist 26.127
lhand -27.3849 -14.2367
lfingers 7.12502
lthumb -0.791836 15.7416
rfemur -28.0968 -6.11188 21.7382
rtibia 74.1458
rfoot -3.61589 -0.344037
rtoes -9.67551
lfemur -4.18356 -10.7166 -13.0155
ltibia 39.9621
lfoot -21.2481 -8.67575
ltoes 3.92055
18
root -1.44145 17.2228 0.725531 -339.957 -73.1286 321.466
lowerback 29.6987 -12.7052 3.75282
upperback 10.4807 -16.1717 -0.716378
thorax -5.06963 -8.24672 2.60067
lowerneck 3.16022 8.92906 1.87112
upperneck 14.4398 11.5739 -1.11894
head 4.41884 5.53226 -0.366401
rclavicle -1.03368e-014 -2.62396e-014
rhumerus -52.2794 22.7536 -83.8346
rradius 59.9126
rwrist 11.8638
rhand -26.8903 38.2081
rfingers 7.12502
rthumb -0.314112 8.22857
lclavicle -1.03368e-014 -2.62396e-014
lhumerus 26.7176 -3.86824 77.2843
lradius 116.841
lwrist 26.7262
lhand -27.0703 -14.7362
lfingers 7.12502
lthumb -0.488011 15.243
rfemur -30.2637 -6.6509 22.1449
rtibia 76.9359
rfoot -3.3737 0.886338
rtoes -9.44378
lfemur -3.23467 -10.7907 -12.6159
ltibia 39.2915
lfoot -21.0416 -8.73428
ltoes 3.89122
19
root -1.41806 17.2561 0.763198 -338.904 -72.899 319.78
lowerback 30.5879 -13.2187 3.89683
upperback 10.7269 -16.7765 -0.76409
thorax -5.22111 -8.5527 2.84013
lowerneck 2.94895 9.21014 1.69071
upperneck 14.252 11.9793 -1.30996
head 4.40053 5.71847 -0.379785
rclavicle -1.73738e-013 4.6118e-014
rhumerus -53.1524 22.8469 -83.6811
rradius 59.0846
rwrist 12.3279
rhand -26.322 37.7938
rfingers 7.12502
rthumb 0.234728 7.81415
lclavicle -1.73738e-013 4.6118e-014
lhumerus 28.22 -3.57273 77.3948
lradius 117.539
lwrist 27.2041
lhand -26.7173 -15.3331
lfingers 7.12502
lthumb -0.147001 14.6466
rfemur -32.4511 -7.19269 22.5485
rtibia 79.6885
rfoot -3.20102 2.03867
rtoes -9.37781
lfemur -2.20041 -11.0127 -12.3004
ltibia 38.548
lfoot -20.8248 -8.56737
ltoes 3.90806
20
root -1.39696 17.2874 0.799498 -337.968 -72.6686 318.212
lowerback 31.522 -13.7185 3.98543
upperback 10.9393 -17.3691 -0.771927
thorax -5.39504 -8.85293 3.16703
lowerneck 2.71893 9.4876 1.33877
upperneck 14.0162 12.3795 -1.4617
head 4.35176 5.89702 -0.353597
rclavicle 7.79236e-014 -2.22639e-014
rhumerus -54.0865 23.0208 -83.4408
rradius 58.372
rwrist 12.6075
rhand -25.7889 37.4681
rfingers 7.12502
rthumb 0.749639 7.48969
lclavicle 7.79236e-014 -2.22639e-014
lhumerus 29.5607 -3.27723 77.6244
lradius 118.301
lwrist 27.4617
lhand -26.3496 -15.9567
lfingers 7.12502
lthumb 0.208085 14.023
rfemur -34.68 -7.71503 22.9627
rtibia 82.4191
rfoot -3.08619 3.07085
rtoes -9.34564
lfemur -1.12453 -11.2869 -12.0265
ltibia 37.7583
lfoot -20.6214 -8.38363
ltoes 3.92899
21
root -1.37896 17.3164 0.835418 -337.279 -72.4757 316.887
lowerback 32.838 -14.2338 4.03587
upperback 10.7185 -17.9677 -0.665373
thorax -5.50282 -9.16578 3.44475
lowerneck 2.42113 9.75894 1.05861
upperneck 13.7338 12.7852 -1.7039
head 4.31163 6.08075 -0.36502
rclavicle -1.47101e-014 -4.77083e-015
rhumerus -54.9837 23.0865 -83.1313
rradius 57.7194
rwrist 12.9129
rhand -25.3762 37.2575
rfingers 7.12502
rthumb 1.14823 7.28088
lclavicle -1.47101e-014 -4.77083e-015
lhumerus 30.8693 -3.03342 77.7756
lradius 119.125
lwrist 27.5312
lhand -26.0609 -16.5522
lfingers 7.12502
lthumb 0.486906 13.427
rfemur -36.9525 -8.25919 23.3199
rtibia 85.1386
rfoot -2.98503 4.02481
rtoes -9.38032
lfemur -0.026592 -11.5518 -11.8531
ltibia 36.9615
lfoot -20.4003 -8.15549
ltoes 4.03085
22
root -1.36293 17.3418 0.870327 -336.865 -72.349 315.818
lowerback 33.8389 -14.6794 3.95002
upperback 10.8961 -18.5417 -0.712129
thorax -5.63485 -9.46054 3.79135
lowerneck 2.13273 10.0078 0.820678
upperneck 13.411 13.1605 -1.93945
head 4.2574 6.2541 -0.383156
rclavicle -6.36111e-014 2.70347e-014
rhumerus -55.944 23.0526 -82.7795
rradius 57.1377
rwrist 13.1856
rhand -24.9887 37.1641
rfingers 7.12502
rthumb 1.52244 7.18975
lclavicle -6.36111e-014 2.70347e-014
lhumerus 32.1062 -2.8875 77.8589
lradius 120.018
lwrist 27.3957
lhand -25.8237 -16.9699
lfingers 7.12502
lthumb 0.716034 13.0087
rfemur -39.2692 -8.78968 23.5921
rtibia 87.8674
rfoot -2.93172 4.89615
rtoes -9.53704
lfemur 1.12989 -11.8327 -11.8132
ltibia 36.1712
lfoot -20.239 -7.88301
ltoes 4.06218
23
root -1.34885 17.361 0.903654 -336.719 -72.2643 314.96
lowerback 34.9932 -15.0976 3.77195
upperback 10.9944 -19.1055 -0.744576
thorax -5.73708 -9.75482 4.18653
lowerneck 1.73709 10.2454 0.566648
upperneck 13.1176 13.5275 -2.1977
head 4.23505 6.42109 -0.398723
rclavicle -6.08281e-014 3.02153e-014
rhumerus -56.8104 22.972 -82.3201
rradius 56.5945
rwrist 13.4074
rhand -24.6423 37.127
rfingers 7.12502
rthumb 1.85707 7.15534
lclavicle -6.08281e-014 3.02153e-014
lhumerus 33.2998 -2.83118 77.8494
lradius 120.978
lwrist 27.0954
lhand -25.7206 -17.2595
lfingers 7.12502
lthumb 0.815633 12.7187
rfemur -41.5918 -9.32844 23.8009
rtibia 90.5974
rfoot -2.89935 5.66313
rtoes -9.67621
lfemur 2.33496 -12.0358 -11.8512
ltibia 35.4076
lfoot -20.0464 -7.63086
ltoes 4.06563
